<svg version="1.1" viewBox="0.0 0.0 960.0 540.0" fill="none" stroke="none" stroke-linecap="square" stroke-miterlimit="10" xmlns:xlink="http://www.w3.org/1999/xlink" xmlns="http://www.w3.org/2000/svg"><clipPath id="p.0"><path d="m0 0l960.0 0l0 540.0l-960.0 0l0 -540.0z" clip-rule="nonzero"/></clipPath><g clip-path="url(#p.0)"><path fill="#ffffff" d="m0 0l960.0 0l0 540.0l-960.0 0z" fill-rule="evenodd"/><path fill="#000000" fill-opacity="0.0" d="m94.6063 147.7559l727.0866 0l0 105.03937l-727.0866 0z" fill-rule="evenodd"/><path fill="#000000" d="m112.871925 203.41403q-3.65625 0 -5.71875 -1.75q-2.0625 -1.75 -2.0625 -4.59375q0 -1.8125 0.796875 -3.328125q0.796875 -1.515625 2.390625 -2.65625q1.609375 -1.15625 4.0625 -1.796875q2.453125 -0.65625 5.71875 -0.65625q0.28125 0 0.765625 0.03125q0.484375 0.015625 1.046875 0.015625q0.578125 0 1.0625 0.046875l0.140625 4.125q-0.375 -0.046875 -0.984375 -0.046875q-0.59375 0 -1.21875 0q-0.625 0 -1.015625 0q-2.015625 0 -3.28125 0.265625q-1.265625 0.265625 -2.015625 0.75q-0.75 0.46875 -1.046875 1.09375q-0.28125 0.625 -0.28125 1.34375q0 0.625 0.21875 1.140625q0.21875 0.5 0.59375 0.765625q0.390625 0.25 0.9375 0.40625q0.5625 0.140625 1.1875 0.140625q1.296875 0 2.25 -0.421875q0.96875 -0.4375 1.609375 -1.375q0.65625 -0.9375 0.96875 -2.40625q0.3125 -1.46875 0.3125 -3.484375q0 -2.640625 -0.53125 -4.03125q-0.53125 -1.390625 -1.5 -1.90625q-0.953125 -0.53125 -2.390625 -0.53125q-1.484375 0 -2.8125 0.453125q-1.3125 0.453125 -2.65625 1.84375l-3.40625 -3.59375q2.015625 -1.875 4.390625 -2.640625q2.375 -0.765625 4.71875 -0.765625q2.0625 0 3.90625 0.484375q1.859375 0.46875 3.265625 1.546875q1.421875 1.078125 2.234375 2.984375q0.828125 1.890625 0.828125 4.71875l0 13.25l-6.25 0l0 -2.109375q-0.625 0.71875 -1.28125 1.25q-0.640625 0.515625 -1.40625 0.828125q-0.765625 0.3125 -1.640625 0.453125q-0.859375 0.15625 -1.90625 0.15625zm16.843788 7.4375l-0.046875 -30.53125l6.0 0l0 2.734375q0.8125 -1.140625 1.75 -1.828125q0.9375 -0.703125 2.03125 -1.03125q1.109375 -0.34375 2.359375 -0.34375q1.828125 0 3.40625 0.765625q1.59375 0.765625 2.78125 2.28125q1.203125 1.5 1.875 3.71875q0.671875 2.203125 0.671875 5.125q0 2.9375 -0.71875 5.140625q-0.71875 2.203125 -1.9375 3.671875q-1.21875 1.46875 -2.828125 2.171875q-1.609375 0.6875 -3.34375 0.6875q-1.15625 0 -2.265625 -0.25q-1.09375 -0.234375 -2.03125 -0.703125q-0.9375 -0.484375 -1.5625 -1.203125l0 9.59375l-6.140625 0zm10.171875 -12.046875q1.0625 0 1.90625 -0.375q0.84375 -0.390625 1.453125 -1.234375q0.625 -0.84375 0.953125 -2.296875q0.34375 -1.46875 0.34375 -3.53125q0 -2.109375 -0.546875 -3.640625q-0.546875 -1.546875 -1.53125 -2.359375q-0.984375 -0.8125 -2.328125 -0.8125q-1.0625 0 -1.875 0.40625q-0.8125 0.40625 -1.34375 1.296875q-0.53125 0.875 -0.796875 2.296875q-0.265625 1.421875 -0.265625 3.34375q0 1.390625 0.171875 2.515625q0.171875 1.125 0.484375 1.953125q0.3125 0.8125 0.78125 1.359375q0.484375 0.546875 1.125 0.8125q0.65625 0.265625 1.46875 0.265625zm13.828171 12.046875l-0.046875 -30.53125l6.0 0l0 2.734375q0.8125 -1.140625 1.75 -1.828125q0.9375 -0.703125 2.03125 -1.03125q1.109375 -0.34375 2.359375 -0.34375q1.828125 0 3.40625 0.765625q1.59375 0.765625 2.78125 2.28125q1.203125 1.5 1.875 3.71875q0.671875 2.203125 0.671875 5.125q0 2.9375 -0.71875 5.140625q-0.71875 2.203125 -1.9375 3.671875q-1.21875 1.46875 -2.828125 2.171875q-1.609375 0.6875 -3.34375 0.6875q-1.15625 0 -2.265625 -0.25q-1.09375 -0.234375 -2.03125 -0.703125q-0.9375 -0.484375 -1.5625 -1.203125l0 9.59375l-6.140625 0zm10.171875 -12.046875q1.0625 0 1.90625 -0.375q0.84375 -0.390625 1.453125 -1.234375q0.625 -0.84375 0.953125 -2.296875q0.34375 -1.46875 0.34375 -3.53125q0 -2.109375 -0.546875 -3.640625q-0.546875 -1.546875 -1.53125 -2.359375q-0.984375 -0.8125 -2.328125 -0.8125q-1.0625 0 -1.875 0.40625q-0.8125 0.40625 -1.34375 1.296875q-0.53125 0.875 -0.796875 2.296875q-0.265625 1.421875 -0.265625 3.34375q0 1.390625 0.171875 2.515625q0.171875 1.125 0.484375 1.953125q0.3125 0.8125 0.78125 1.359375q0.484375 0.546875 1.125 0.8125q0.65625 0.265625 1.46875 0.265625zm14.453171 4.03125l0 -4.796875l6.234375 0l0 -22.703125l-5.9375 0l0 -4.796875l12.09375 0l0 27.5l6.140625 0l0 4.796875l-18.53125 0zm27.26567 8.453125q-1.578125 0 -2.828125 -0.5625q-1.25 -0.546875 -2.59375 -1.546875l2.0625 -4.234375l0.140625 -0.375l0.4375 0.1875q0.1875 0.328125 0.375 0.6875q0.203125 0.359375 0.875 0.84375q0.28125 0.1875 0.65625 0.28125q0.390625 0.109375 0.828125 0.109375q0.859375 0 1.5 -0.515625q0.65625 -0.5 1.203125 -1.515625q0.5625 -1.0 1.140625 -2.671875l5.03125 -13.96875q0.71875 -2.015625 1.171875 -3.84375q0.46875 -1.828125 0.515625 -3.796875l5.5625 0q-0.09375 2.171875 -0.96875 4.59375q-0.859375 2.421875 -1.671875 4.625l-5.5625 15.03125q-1.34375 3.6875 -3.296875 5.171875q-1.9375 1.5 -4.578125 1.5l0 0zm-4.75 -30.921875l6.046875 0l6.390625 16.609375l-3.265625 6.34375l-9.171875 -22.953125zm25.250046 18.0q2.828125 -2.6875 4.984375 -4.765625q2.15625 -2.09375 3.734375 -3.75q1.59375 -1.65625 2.625 -3.0625q1.03125 -1.421875 1.515625 -2.765625q0.484375 -1.34375 0.484375 -2.9375q0 -0.859375 -0.21875 -1.53125q-0.21875 -0.671875 -0.703125 -1.125q-0.46875 -0.453125 -1.21875 -0.6875q-0.75 -0.25 -1.796875 -0.25q-0.96875 0 -1.78125 0.203125q-0.8125 0.1875 -1.53125 0.625q-0.71875 0.421875 -1.34375 1.140625q-0.484375 0.625 -0.609375 0.96875q-0.109375 0.328125 -0.0625 0.703125l-0.296875 0.4375l-0.375 -0.234375l-4.125 -3.21875q1.09375 -1.875 2.703125 -3.125q1.609375 -1.25 3.53125 -1.890625q1.921875 -0.65625 3.984375 -0.65625q2.640625 0 4.828125 1.0625q2.1875 1.0625 3.46875 3.0q1.296875 1.9375 1.296875 4.578125q0 1.828125 -0.5 3.421875q-0.5 1.578125 -1.421875 3.09375q-0.90625 1.5 -2.25 3.09375q-1.34375 1.578125 -3.078125 3.359375q-1.71875 1.765625 -3.828125 3.84375l8.875 0q0.8125 0 1.140625 -0.09375q0.34375 -0.109375 0.640625 -0.34375l0.46875 0l0 0.4375l0 4.9375l-19.140625 0l0 -4.46875z" fill-rule="nonzero"/><path fill="#000000" d="m261.29407 203.36716q-2.40625 0 -4.421875 -0.859375q-2.015625 -0.875 -3.484375 -2.40625q-1.46875 -1.53125 -2.28125 -3.625q-0.8125 -2.09375 -0.8125 -4.578125q0 -2.453125 0.8125 -4.53125q0.8125 -2.09375 2.28125 -3.625q1.46875 -1.546875 3.484375 -2.40625q2.015625 -0.875 4.359375 -0.875q2.6875 0 4.828125 1.09375q2.140625 1.078125 3.484375 3.0l-2.15625 2.109375l-0.34375 0.328125l-0.234375 -0.234375q0 -0.390625 -0.171875 -0.71875q-0.171875 -0.34375 -0.75 -0.921875q-1.046875 -0.953125 -2.25 -1.328125q-1.203125 -0.390625 -2.78125 -0.390625q-1.390625 0 -2.640625 0.578125q-1.25 0.578125 -2.234375 1.65625q-0.984375 1.078125 -1.5625 2.609375q-0.578125 1.53125 -0.578125 3.40625q0 1.875 0.578125 3.4375q0.578125 1.5625 1.578125 2.71875q1.015625 1.140625 2.421875 1.796875q1.421875 0.640625 3.0625 0.640625q1.09375 0 2.09375 -0.3125q1.015625 -0.3125 1.921875 -0.90625q0.921875 -0.609375 1.6875 -1.46875l2.015625 2.359375q-1.625 1.71875 -3.625 2.59375q-1.984375 0.859375 -4.28125 0.859375l0 0zm22.312561 -0.140625q-2.96875 0 -5.25 -1.46875q-2.28125 -1.46875 -3.578125 -4.03125q-1.296875 -2.578125 -1.296875 -5.875q0 -3.375 1.296875 -5.9375q1.296875 -2.5625 3.578125 -4.03125q2.28125 -1.46875 5.25 -1.46875q2.96875 0 5.25 1.46875q2.28125 1.46875 3.578125 4.03125q1.296875 2.5625 1.296875 5.9375q0 3.296875 -1.296875 5.875q-1.296875 2.5625 -3.578125 4.03125q-2.28125 1.46875 -5.25 1.46875zm0 -2.890625q1.921875 0 3.359375 -1.09375q1.4375 -1.109375 2.28125 -3.03125q0.84375 -1.921875 0.84375 -4.421875q0 -2.484375 -0.84375 -4.40625q-0.84375 -1.921875 -2.28125 -3.0q-1.4375 -1.078125 -3.359375 -1.078125q-1.875 0 -3.34375 1.078125q-1.453125 1.078125 -2.296875 3.0q-0.84375 1.921875 -0.84375 4.40625q0 2.5 0.84375 4.421875q0.84375 1.921875 2.296875 3.03125q1.46875 1.09375 3.34375 1.09375zm15.7969055 2.5l0 -2.78125l6.46875 0l0 -26.359375l-6.1875 0l0 -2.78125l9.703125 0l0 29.140625l6.421875 0l0 2.78125l-16.40625 0zm24.000061 0l0 -2.78125l6.46875 0l0 -26.359375l-6.1875 0l0 -2.78125l9.703125 0l0 29.140625l6.421875 0l0 2.78125l-16.40625 0zm33.265656 0.484375q-2.40625 0 -4.375 -0.75q-1.96875 -0.75 -3.390625 -2.1875q-1.40625 -1.4375 -2.171875 -3.5625q-0.765625 -2.140625 -0.765625 -4.875q0 -2.796875 0.78125 -4.953125q0.796875 -2.15625 2.15625 -3.609375q1.375 -1.46875 3.21875 -2.234375q1.859375 -0.78125 3.921875 -0.78125q1.859375 0 3.484375 0.625q1.640625 0.625 2.84375 1.90625q1.203125 1.265625 1.890625 3.234375q0.703125 1.96875 0.703125 4.65625q0 0.390625 -0.03125 0.796875q-0.015625 0.40625 -0.0625 0.78125l-15.609375 0q0.109375 2.109375 0.734375 3.671875q0.625 1.5625 1.625 2.546875q1.015625 0.984375 2.328125 1.46875q1.3125 0.484375 2.8125 0.484375q1.140625 0 2.140625 -0.265625q1.015625 -0.265625 1.90625 -0.8125q0.890625 -0.5625 1.609375 -1.375l1.921875 1.875q-0.90625 1.09375 -2.09375 1.875q-1.171875 0.765625 -2.5625 1.125q-1.390625 0.359375 -3.015625 0.359375zm-7.25 -13.640625l12.046875 0q0 -1.53125 -0.40625 -2.75q-0.40625 -1.234375 -1.15625 -2.109375q-0.75 -0.890625 -1.78125 -1.34375q-1.03125 -0.46875 -2.328125 -0.46875q-1.140625 0 -2.1875 0.390625q-1.03125 0.375 -1.890625 1.21875q-0.859375 0.84375 -1.46875 2.09375q-0.59375 1.25 -0.828125 2.96875zm30.046906 21.40625q-2.3125 0 -4.15625 -0.359375q-1.84375 -0.359375 -3.171875 -1.0625q-1.3125 -0.6875 -2.015625 -1.75q-0.6875 -1.046875 -0.6875 -2.484375q0 -1.34375 0.5625 -2.40625q0.578125 -1.046875 1.515625 -1.734375q0.9375 -0.703125 2.046875 -1.046875l1.4375 0.859375q-0.859375 0.53125 -1.390625 1.0625q-0.53125 0.53125 -0.78125 1.21875q-0.234375 0.703125 -0.234375 1.65625q0 0.828125 0.484375 1.46875q0.484375 0.640625 1.375 1.078125q0.890625 0.4375 2.15625 0.671875q1.265625 0.234375 2.90625 0.234375q2.203125 0 3.5625 -0.453125q1.375 -0.453125 2.046875 -1.25q0.671875 -0.78125 0.671875 -1.796875q0 -1.046875 -0.390625 -1.71875q-0.375 -0.671875 -1.578125 -1.0q-1.1875 -0.34375 -3.640625 -0.34375q-1.6875 0 -3.078125 -0.140625q-1.390625 -0.15625 -2.5 -0.484375q-1.09375 -0.34375 -1.84375 -0.84375q-0.734375 -0.5 -1.125 -1.21875q-0.390625 -0.71875 -0.390625 -1.6875q0 -1.25 0.703125 -2.390625q0.703125 -1.15625 1.890625 -2.21875l1.640625 1.296875q-0.484375 0.53125 -0.78125 0.9375q-0.28125 0.40625 -0.40625 0.765625q-0.109375 0.359375 -0.109375 0.796875q0 0.765625 0.59375 1.25q0.609375 0.46875 2.09375 0.6875q1.484375 0.21875 4.03125 0.21875q2.546875 0 4.125 0.40625q1.59375 0.40625 2.421875 1.1875q0.84375 0.765625 1.171875 1.78125q0.34375 1.0 0.34375 2.1875q0 1.296875 -0.5 2.46875q-0.5 1.1875 -1.609375 2.125q-1.109375 0.9375 -2.9375 1.484375q-1.8125 0.546875 -4.453125 0.546875zm-1.015625 -15.6875q-2.34375 0 -4.078125 -1.03125q-1.71875 -1.03125 -2.65625 -2.78125q-0.9375 -1.765625 -0.9375 -3.875q0 -2.109375 0.9375 -3.828125q0.9375 -1.734375 2.65625 -2.765625q1.734375 -1.03125 4.078125 -1.03125q2.40625 0 4.109375 1.03125q1.703125 1.03125 2.640625 2.765625q0.9375 1.71875 0.9375 3.828125q0 2.109375 -0.9375 3.875q-0.9375 1.75 -2.640625 2.78125q-1.703125 1.03125 -4.109375 1.03125zm0 -2.875q1.390625 0 2.46875 -0.640625q1.09375 -0.65625 1.703125 -1.765625q0.625 -1.109375 0.625 -2.40625q0 -1.34375 -0.625 -2.421875q-0.609375 -1.078125 -1.703125 -1.71875q-1.078125 -0.65625 -2.46875 -0.65625q-1.390625 0 -2.46875 0.65625q-1.078125 0.640625 -1.703125 1.71875q-0.625 1.078125 -0.625 2.421875q0 1.296875 0.625 2.40625q0.625 1.109375 1.703125 1.765625q1.078125 0.640625 2.46875 0.640625zm6.390625 -8.078125l-1.34375 -1.578125q1.390625 -1.390625 2.890625 -2.03125q1.515625 -0.65625 3.59375 -0.515625l0.421875 2.828125q-1.578125 -0.140625 -2.96875 0.109375q-1.390625 0.234375 -2.59375 1.1875zm19.828186 18.875q-2.40625 0 -4.375 -0.75q-1.96875 -0.75 -3.390625 -2.1875q-1.40625 -1.4375 -2.171875 -3.5625q-0.765625 -2.140625 -0.765625 -4.875q0 -2.796875 0.78125 -4.953125q0.796875 -2.15625 2.15625 -3.609375q1.375 -1.46875 3.21875 -2.234375q1.859375 -0.78125 3.921875 -0.78125q1.859375 0 3.484375 0.625q1.640625 0.625 2.84375 1.90625q1.203125 1.265625 1.890625 3.234375q0.703125 1.96875 0.703125 4.65625q0 0.390625 -0.03125 0.796875q-0.015625 0.40625 -0.0625 0.78125l-15.609375 0q0.109375 2.109375 0.734375 3.671875q0.625 1.5625 1.625 2.546875q1.015625 0.984375 2.328125 1.46875q1.3125 0.484375 2.8125 0.484375q1.140625 0 2.140625 -0.265625q1.015625 -0.265625 1.90625 -0.8125q0.890625 -0.5625 1.609375 -1.375l1.921875 1.875q-0.90625 1.09375 -2.09375 1.875q-1.171875 0.765625 -2.5625 1.125q-1.390625 0.359375 -3.015625 0.359375zm-7.25 -13.640625l12.046875 0q0 -1.53125 -0.40625 -2.75q-0.40625 -1.234375 -1.15625 -2.109375q-0.75 -0.890625 -1.78125 -1.34375q-1.03125 -0.46875 -2.328125 -0.46875q-1.140625 0 -2.1875 0.390625q-1.03125 0.375 -1.890625 1.21875q-0.859375 0.84375 -1.46875 2.09375q-0.59375 1.25 -0.828125 2.96875z" fill-rule="nonzero"/><path fill="#b7b7b7" d="m110.38755 236.27216q-1.0 0 -1.609375 -0.328125q-0.59375 -0.34375 -0.890625 -1.0625q-0.296875 -0.71875 -0.375 -1.796875q-0.0625 -1.09375 -0.015625 -2.59375l0.28125 -7.453125l1.125 -0.125l0.203125 -0.03125l0.03125 0.15625q-0.109375 0.125 -0.171875 0.28125q-0.0625 0.15625 -0.078125 0.546875l-0.15625 2.421875l0.015625 0.359375l-0.15625 3.9375q-0.0625 1.8125 0.0625 2.84375q0.140625 1.03125 0.578125 1.453125q0.453125 0.421875 1.3125 0.4375q0.75 0 1.40625 -0.28125q0.671875 -0.28125 1.3125 -0.734375l0.40625 0.859375q-0.78125 0.5625 -1.59375 0.84375q-0.8125 0.265625 -1.6875 0.265625l0 0zm-5.203125 -10.390625l7.46875 0l0 0.921875l-7.46875 0l0 -0.921875zm11.5624695 -4.828125l1.046875 0l0.203125 0l0 0.15625q-0.125 0.09375 -0.15625 0.25q-0.03125 0.140625 -0.03125 0.515625l0 6.046875q0.40625 -0.734375 0.96875 -1.265625q0.578125 -0.546875 1.25 -0.828125q0.6875 -0.296875 1.4375 -0.296875q0.921875 0 1.625 0.390625q0.703125 0.375 1.09375 1.3125q0.40625 0.921875 0.40625 2.59375l0 6.1875l-1.0625 0l0 -6.140625q0 -1.296875 -0.265625 -2.03125q-0.265625 -0.734375 -0.796875 -1.03125q-0.515625 -0.3125 -1.25 -0.3125q-0.5 0 -1.0 0.1875q-0.484375 0.171875 -0.921875 0.5q-0.421875 0.3125 -0.765625 0.765625q-0.328125 0.453125 -0.53125 1.015625q-0.1875 0.546875 -0.1875 1.171875l0 5.875l-1.0625 0l0 -15.0625zm15.593712 15.28125q-1.09375 0 -1.984375 -0.359375q-0.875 -0.359375 -1.515625 -1.046875q-0.625 -0.6875 -0.9843674 -1.671875q-0.34375 -0.984375 -0.34375 -2.234375q0 -1.3125 0.34375 -2.3125q0.35936737 -1.015625 0.9687424 -1.703125q0.625 -0.703125 1.4375 -1.046875q0.828125 -0.359375 1.78125 -0.359375q0.875 0 1.625 0.296875q0.765625 0.296875 1.328125 0.890625q0.578125 0.578125 0.890625 1.484375q0.328125 0.90625 0.328125 2.140625q0 0.171875 0 0.296875q0 0.125 -0.03125 0.3125l-7.609375 0q0.015625 1.109375 0.3125 1.9375q0.296875 0.828125 0.796875 1.375q0.5 0.53125 1.171875 0.8125q0.6875 0.265625 1.5 0.265625q0.65625 0 1.171875 -0.15625q0.53125 -0.15625 0.953125 -0.453125q0.4375 -0.3125 0.796875 -0.71875l0.6875 0.609375q-0.4375 0.515625 -1.0 0.890625q-0.546875 0.375 -1.203125 0.5625q-0.65625 0.1875 -1.421875 0.1875zm-3.71875 -6.21875l6.46875 0q0 -0.859375 -0.234375 -1.53125q-0.21875 -0.6875 -0.625 -1.15625q-0.40625 -0.46875 -0.96875 -0.703125q-0.5625 -0.234375 -1.25 -0.234375q-0.71875 0 -1.3125 0.25q-0.59375 0.25 -1.03125 0.734375q-0.4375 0.46875 -0.703125 1.140625q-0.25 0.65625 -0.34375 1.5zm25.468689 6.25q-0.59375 0 -1.125 -0.171875q-0.53125 -0.171875 -0.984375 -0.53125q-0.4375 -0.359375 -0.75 -0.90625q-0.3125 -0.5625 -0.484375 -1.328125q-0.171875 -0.78125 -0.171875 -1.78125l0.015625 -5.796875l1.0625 0l0 5.796875q0 1.078125 0.21875 1.8125q0.21875 0.734375 0.59375 1.171875q0.375 0.421875 0.875 0.625q0.5 0.1875 1.078125 0.1875q0.640625 0 1.1875 -0.234375q0.5625 -0.25 0.984375 -0.734375q0.4375 -0.484375 0.6875 -1.203125q0.25 -0.734375 0.25 -1.703125l0 -5.71875l1.0625 0l0 8.40625q0 0.40625 0.03125 0.9375q0.03125 0.515625 0.203125 0.921875l-1.078125 0q-0.109375 -0.265625 -0.15625 -0.578125q-0.046875 -0.328125 -0.0625 -0.65625q0 -0.328125 0 -0.578125q-0.234375 0.4375 -0.546875 0.796875q-0.296875 0.359375 -0.71875 0.640625q-0.40625 0.28125 -0.953125 0.453125q-0.546875 0.171875 -1.21875 0.171875zm7.9530945 -0.25l0 -10.265625l1.078125 0l0 2.171875q0.34375 -0.734375 0.890625 -1.265625q0.5625 -0.546875 1.28125 -0.828125q0.734375 -0.296875 1.515625 -0.296875q0.84375 0 1.53125 0.390625q0.703125 0.390625 1.125 1.328125q0.4375 0.921875 0.4375 2.578125l0 6.1875l-1.09375 0l0 -6.140625q0 -1.265625 -0.28125 -2.0q-0.265625 -0.734375 -0.78125 -1.046875q-0.515625 -0.328125 -1.25 -0.328125q-0.671875 0 -1.28125 0.28125q-0.59375 0.28125 -1.078125 0.78125q-0.46875 0.484375 -0.75 1.140625q-0.265625 0.65625 -0.265625 1.4375l0 5.875l-1.078125 0zm11.9062195 0l0 -0.921875l2.8125 0l0 -8.4375l-2.671875 0l0 -0.90625l3.765625 0l0 9.34375l2.578125 0l0 0.921875l-6.484375 0zm3.265625 -12.828125q-0.328125 0 -0.59375 -0.25q-0.265625 -0.25 -0.265625 -0.609375q0 -0.375 0.25 -0.625q0.25 -0.25 0.609375 -0.25q0.359375 0 0.625 0.265625q0.265625 0.25 0.265625 0.609375q0 0.34375 -0.265625 0.609375q-0.265625 0.25 -0.625 0.25zm8.3905945 6.234375l0 -1.0625l6.0 0l0 1.0625l-6.0 0zm14.2499695 10.484375q-1.15625 0 -2.03125 -0.1875q-0.859375 -0.171875 -1.4375 -0.515625q-0.578125 -0.328125 -0.875 -0.828125q-0.28125 -0.5 -0.28125 -1.109375q0 -0.6875 0.25 -1.171875q0.265625 -0.484375 0.6875 -0.828125q0.421875 -0.34375 0.9375 -0.59375l0.59375 0.328125q-0.4375 0.25 -0.75 0.53125q-0.3125 0.28125 -0.5 0.671875q-0.1875 0.40625 -0.1875 0.96875q0 0.421875 0.21875 0.765625q0.21875 0.34375 0.65625 0.578125q0.453125 0.234375 1.109375 0.375q0.671875 0.140625 1.609375 0.140625q1.171875 0 1.921875 -0.28125q0.75 -0.265625 1.125 -0.734375q0.390625 -0.453125 0.390625 -1.03125q0.015625 -0.5625 -0.171875 -0.921875q-0.1875 -0.34375 -0.8125 -0.515625q-0.609375 -0.171875 -1.875 -0.171875q-0.78125 0 -1.46875 -0.046875q-0.671875 -0.0625 -1.21875 -0.1875q-0.53125 -0.125 -0.90625 -0.34375q-0.359375 -0.234375 -0.578125 -0.546875q-0.203125 -0.3125 -0.203125 -0.765625q0 -0.578125 0.34375 -1.03125q0.34375 -0.46875 0.90625 -0.96875l0.546875 0.453125q-0.296875 0.296875 -0.484375 0.5q-0.171875 0.203125 -0.25 0.375q-0.078125 0.171875 -0.078125 0.421875q0 0.46875 0.40625 0.734375q0.40625 0.25 1.234375 0.34375q0.828125 0.09375 2.03125 0.09375q1.125 0 1.84375 0.171875q0.71875 0.171875 1.09375 0.484375q0.390625 0.296875 0.53125 0.75q0.15625 0.453125 0.15625 1.015625q0 0.609375 -0.28125 1.15625q-0.265625 0.546875 -0.8125 0.96875q-0.546875 0.4375 -1.390625 0.6875q-0.828125 0.265625 -2.0 0.265625zm-0.375 -7.328125q-1.03125 0 -1.84375 -0.46875q-0.796875 -0.484375 -1.25 -1.296875q-0.453125 -0.828125 -0.453125 -1.8125q0 -0.984375 0.453125 -1.78125q0.453125 -0.8125 1.25 -1.28125q0.8125 -0.484375 1.84375 -0.484375q1.09375 0 1.875 0.484375q0.796875 0.46875 1.234375 1.28125q0.453125 0.796875 0.453125 1.78125q0 0.984375 -0.4375 1.8125q-0.421875 0.8125 -1.21875 1.296875q-0.796875 0.46875 -1.90625 0.46875zm0 -0.953125q0.796875 0 1.390625 -0.328125q0.59375 -0.328125 0.90625 -0.921875q0.3125 -0.59375 0.3125 -1.359375q0 -0.765625 -0.34375 -1.359375q-0.328125 -0.59375 -0.921875 -0.921875q-0.59375 -0.34375 -1.34375 -0.34375q-0.71875 0 -1.3125 0.34375q-0.578125 0.328125 -0.921875 0.921875q-0.34375 0.59375 -0.34375 1.34375q0 0.8125 0.34375 1.40625q0.34375 0.578125 0.921875 0.90625q0.59375 0.3125 1.3125 0.3125zm2.921875 -4.375l-0.453125 -0.5625q0.546875 -0.640625 1.203125 -0.90625q0.65625 -0.28125 1.59375 -0.203125l0.109375 0.875q-0.765625 -0.0625 -1.359375 0.09375q-0.59375 0.15625 -1.09375 0.703125zm7.9374695 9.015625q-1.625 0 -2.515625 -0.828125q-0.890625 -0.828125 -0.890625 -2.03125q0 -0.8125 0.375 -1.4375q0.375 -0.640625 1.046875 -1.078125q0.671875 -0.453125 1.578125 -0.671875q0.90625 -0.234375 1.953125 -0.234375q0.375 0 0.8125 0.015625q0.453125 0.015625 0.9375 0.046875q0.484375 0.03125 0.96875 0.09375l0.078125 0.875q-0.40625 -0.078125 -0.890625 -0.109375q-0.46875 -0.03125 -0.9375 -0.046875q-0.453125 -0.03125 -0.84375 -0.03125q-0.921875 0 -1.65625 0.171875q-0.734375 0.171875 -1.265625 0.484375q-0.515625 0.3125 -0.78125 0.796875q-0.265625 0.46875 -0.265625 1.078125q0 0.5 0.15625 0.890625q0.171875 0.390625 0.484375 0.640625q0.3125 0.234375 0.75 0.375q0.453125 0.140625 1.046875 0.140625q0.953125 0 1.6875 -0.3125q0.734375 -0.328125 1.234375 -0.90625q0.515625 -0.59375 0.765625 -1.421875q0.265625 -0.828125 0.265625 -1.875q0 -1.625 -0.3125 -2.59375q-0.3125 -0.984375 -1.046875 -1.421875q-0.71875 -0.4375 -1.9375 -0.4375q-0.78125 0 -1.515625 0.3125q-0.734375 0.296875 -1.40625 0.953125l-0.59375 -0.703125q0.71875 -0.71875 1.59375 -1.09375q0.890625 -0.375 1.96875 -0.375q1.03125 0 1.8125 0.265625q0.78125 0.25 1.3125 0.84375q0.53125 0.578125 0.8125 1.546875q0.296875 0.96875 0.296875 2.375l0 5.453125l-1.1875 0l0 -2.078125q-0.21875 0.5625 -0.609375 1.0q-0.375 0.4375 -0.890625 0.734375q-0.515625 0.296875 -1.125 0.4375q-0.609375 0.15625 -1.265625 0.15625zm13.3280945 -0.09375q-1.0 0 -1.609375 -0.328125q-0.59375 -0.34375 -0.890625 -1.0625q-0.296875 -0.71875 -0.375 -1.796875q-0.0625 -1.09375 -0.015625 -2.59375l0.28125 -7.453125l1.125 -0.125l0.203125 -0.03125l0.03125 0.15625q-0.109375 0.125 -0.171875 0.28125q-0.0625 0.15625 -0.078125 0.546875l-0.15625 2.421875l0.015625 0.359375l-0.15625 3.9375q-0.0625 1.8125 0.0625 2.84375q0.140625 1.03125 0.578125 1.453125q0.453125 0.421875 1.3125 0.4375q0.75 0 1.40625 -0.28125q0.671875 -0.28125 1.3125 -0.734375l0.40625 0.859375q-0.78125 0.5625 -1.59375 0.84375q-0.8125 0.265625 -1.6875 0.265625l0 0zm-5.203125 -10.390625l7.46875 0l0 0.921875l-7.46875 0l0 -0.921875zm15.8280945 10.453125q-1.09375 0 -1.984375 -0.359375q-0.875 -0.359375 -1.515625 -1.046875q-0.625 -0.6875 -0.984375 -1.671875q-0.34375 -0.984375 -0.34375 -2.234375q0 -1.3125 0.34375 -2.3125q0.359375 -1.015625 0.96875 -1.703125q0.625 -0.703125 1.4375 -1.046875q0.828125 -0.359375 1.78125 -0.359375q0.875 0 1.625 0.296875q0.765625 0.296875 1.328125 0.890625q0.578125 0.578125 0.890625 1.484375q0.328125 0.90625 0.328125 2.140625q0 0.171875 0 0.296875q0 0.125 -0.03125 0.3125l-7.609375 0q0.015625 1.109375 0.3125 1.9375q0.296875 0.828125 0.796875 1.375q0.5 0.53125 1.171875 0.8125q0.6875 0.265625 1.5 0.265625q0.65625 0 1.171875 -0.15625q0.53125 -0.15625 0.953125 -0.453125q0.4375 -0.3125 0.796875 -0.71875l0.6875 0.609375q-0.4375 0.515625 -1.0 0.890625q-0.546875 0.375 -1.203125 0.5625q-0.65625 0.1875 -1.421875 0.1875zm-3.71875 -6.21875l6.46875 0q0 -0.859375 -0.234375 -1.53125q-0.21875 -0.6875 -0.625 -1.15625q-0.40625 -0.46875 -0.96875 -0.703125q-0.5625 -0.234375 -1.25 -0.234375q-0.71875 0 -1.3125 0.25q-0.59375 0.25 -1.03125 0.734375q-0.4375 0.46875 -0.703125 1.140625q-0.25 0.65625 -0.34375 1.5zm11.6405945 6.015625l-2.078125 -10.28125l1.015625 0l1.765625 8.75l2.0 -7.859375l0.71875 0l2.328125 7.90625q0.328125 -2.0 0.546875 -3.359375q0.234375 -1.375 0.359375 -2.328125q0.140625 -0.953125 0.203125 -1.59375q0.078125 -0.65625 0.078125 -1.171875l0 -0.34375l1.0625 0q-0.234375 1.75 -0.5 3.46875q-0.25 1.703125 -0.5625 3.40625q-0.296875 1.6875 -0.65625 3.40625l-1.09375 0l-2.125 -7.421875l-2.046875 7.421875l-1.015625 0zm13.4374695 0.234375q-1.625 0 -2.515625 -0.828125q-0.890625 -0.828125 -0.890625 -2.03125q0 -0.8125 0.375 -1.4375q0.375 -0.640625 1.046875 -1.078125q0.671875 -0.453125 1.578125 -0.671875q0.90625 -0.234375 1.953125 -0.234375q0.375 0 0.8125 0.015625q0.453125 0.015625 0.9375 0.046875q0.484375 0.03125 0.96875 0.09375l0.078125 0.875q-0.40625 -0.078125 -0.890625 -0.109375q-0.46875 -0.03125 -0.9375 -0.046875q-0.453125 -0.03125 -0.84375 -0.03125q-0.921875 0 -1.65625 0.171875q-0.734375 0.171875 -1.265625 0.484375q-0.515625 0.3125 -0.78125 0.796875q-0.265625 0.46875 -0.265625 1.078125q0 0.5 0.15625 0.890625q0.171875 0.390625 0.484375 0.640625q0.3125 0.234375 0.75 0.375q0.453125 0.140625 1.046875 0.140625q0.953125 0 1.6875 -0.3125q0.734375 -0.328125 1.234375 -0.90625q0.515625 -0.59375 0.765625 -1.421875q0.265625 -0.828125 0.265625 -1.875q0 -1.625 -0.3125 -2.59375q-0.3125 -0.984375 -1.046875 -1.421875q-0.71875 -0.4375 -1.9375 -0.4375q-0.78125 0 -1.515625 0.3125q-0.734375 0.296875 -1.40625 0.953125l-0.59375 -0.703125q0.71875 -0.71875 1.59375 -1.09375q0.890625 -0.375 1.96875 -0.375q1.03125 0 1.8125 0.265625q0.78125 0.25 1.3125 0.84375q0.53125 0.578125 0.8125 1.546875q0.296875 0.96875 0.296875 2.375l0 5.453125l-1.1875 0l0 -2.078125q-0.21875 0.5625 -0.609375 1.0q-0.375 0.4375 -0.890625 0.734375q-0.515625 0.296875 -1.125 0.4375q-0.609375 0.15625 -1.265625 0.15625zm9.3749695 3.6875q-0.71875 0 -1.296875 -0.234375q-0.578125 -0.21875 -1.03125 -0.640625l0.59375 -0.78125l0.125 -0.15625l0.125 0.09375q0 0.15625 0.109375 0.265625q0.109375 0.125 0.421875 0.328125q0.234375 0.109375 0.5 0.15625q0.28125 0.046875 0.546875 0.046875q0.609375 0 1.046875 -0.28125q0.453125 -0.265625 0.828125 -0.953125q0.390625 -0.671875 0.796875 -1.921875l2.09375 -6.09375q0.328125 -1.03125 0.640625 -2.0q0.328125 -0.984375 0.4375 -2.03125l1.15625 0q-0.15625 1.046875 -0.5 2.0625q-0.34375 1.015625 -0.71875 2.09375l-2.59375 7.28125q-0.5625 1.546875 -1.375 2.15625q-0.8125 0.609375 -1.90625 0.609375l0 0zm-1.609375 -14.203125l1.15625 0l3.71875 9.40625l-0.515625 1.359375l-4.359375 -10.765625z" fill-rule="nonzero"/></g></svg>